<svg width="120" height="32" viewBox="0 0 120 32" fill="none" xmlns="http://www.w3.org/2000/svg">
<path d="M16.1 24.9526H13.3925V18.4632C13.3925 17.7006 13.2073 17.1202 12.8368 16.725C12.4663 16.3299 12.0125 16.1323 11.4753 16.1323C11.0616 16.1323 10.6696 16.1971 10.2991 16.3299C9.92862 16.4595 9.5705 16.6756 9.21855 16.9782C9.32969 17.4166 9.38835 17.9136 9.38835 18.4632V24.9526H6.68082V18.4632C6.68082 17.7006 6.49559 17.1202 6.12512 16.725C5.75465 16.3299 5.30699 16.1323 4.77907 16.1323C4.36538 16.1323 4.00108 16.2064 3.68927 16.3484C3.37437 16.4935 3.05021 16.7219 2.71061 17.0368V24.9557H0V14.0793H2.70752L2.71061 14.8881C3.05021 14.564 3.44847 14.2985 3.90538 14.0978C4.36229 13.8971 4.83156 13.7952 5.30699 13.7952C5.83492 13.7952 6.36592 13.9156 6.89693 14.1534C7.43103 14.3911 7.8972 14.7368 8.29854 15.1907C8.86351 14.6905 9.43466 14.3293 10.012 14.1163C10.5893 13.9033 11.2222 13.7952 11.9137 13.7952C12.4787 13.7952 13.0159 13.8786 13.5222 14.0484C14.0316 14.2182 14.4731 14.4868 14.8497 14.8572C15.2263 15.2277 15.5289 15.697 15.7543 16.2681C15.9796 16.8393 16.0939 17.5246 16.0939 18.3273V24.9526H16.1Z" fill="#FF3366"/>
<path d="M28.023 14.0607L23.1328 26.984C22.7685 27.9503 22.2931 28.6449 21.7034 29.071C21.1137 29.497 20.4129 29.71 19.5979 29.71C19.4713 29.71 19.3355 29.7008 19.1842 29.6822C19.0329 29.6606 18.8909 29.6329 18.752 29.5958L17.8474 27.0766C18.0605 27.1754 18.2796 27.2557 18.505 27.3112C18.7304 27.3699 18.9434 27.3946 19.1441 27.3946C19.5701 27.3946 19.9591 27.2989 20.3111 27.1044C20.663 26.9099 20.9316 26.5487 21.1199 26.0239L21.4966 24.934L17.3041 14.0607H20.2555L22.7562 21.0565L25.1056 14.0607H28.023Z" fill="#FF3366"/>
<path d="M35.3028 24.7056C35.028 24.8816 34.7069 25.0143 34.3426 25.1008C33.9783 25.1903 33.6171 25.2335 33.2528 25.2335C32.6138 25.2335 32.0735 25.1563 31.6351 24.9989C31.1967 24.8414 30.8448 24.6006 30.5824 24.2765C30.3199 23.9492 30.1285 23.5355 30.0081 23.0354C29.8877 22.5322 29.8291 21.9456 29.8291 21.2664V16.5058H28.3997V15.2833C29.2765 14.919 29.9896 14.3787 30.5361 13.6656C31.0825 12.9493 31.453 12.0231 31.6536 10.8809H32.5366V14.0576H35.2812V16.5028H32.5366V21.4485C32.5366 21.7233 32.5706 21.9487 32.6416 22.1246C32.7095 22.3006 32.8021 22.4365 32.9132 22.5383C33.0244 22.6371 33.154 22.7081 33.2991 22.7452C33.4443 22.7822 33.5986 22.8038 33.7592 22.8038C33.9722 22.8038 34.2284 22.7668 34.531 22.6896C34.8304 22.6155 35.0898 22.4889 35.3028 22.313V24.7056Z" fill="#FF3366"/>
<path d="M48.1303 19.5159C48.1303 20.3309 47.9791 21.0873 47.6796 21.782C47.377 22.4766 46.9633 23.0786 46.4385 23.588C45.9137 24.0974 45.2931 24.4987 44.5862 24.792C43.8792 25.0884 43.1228 25.2335 42.3201 25.2335C41.5174 25.2335 40.7641 25.0853 40.0633 24.792C39.3594 24.4987 38.7451 24.0943 38.2202 23.5787C37.6923 23.0663 37.2786 22.4581 36.9792 21.7634C36.6766 21.0657 36.5284 20.3186 36.5284 19.5159C36.5284 18.7256 36.6828 17.9815 36.9884 17.2869C37.2941 16.5923 37.7139 15.9841 38.2388 15.4623C38.7667 14.9406 39.381 14.5331 40.0819 14.2398C40.7827 13.9465 41.5298 13.7983 42.3201 13.7983C43.1228 13.7983 43.8792 13.9465 44.5862 14.2398C45.2931 14.5331 45.9137 14.9344 46.4385 15.4438C46.9664 15.9532 47.3801 16.5583 47.6796 17.2591C47.9791 17.963 48.1303 18.7132 48.1303 19.5159ZM45.4197 19.5159C45.4197 19.0528 45.3395 18.6206 45.1758 18.2193C45.0122 17.8179 44.793 17.466 44.509 17.1634C44.228 16.864 43.9008 16.6293 43.5241 16.4595C43.1506 16.2897 42.7492 16.2064 42.3232 16.2064C41.8972 16.2064 41.4989 16.2897 41.1223 16.4595C40.7487 16.6293 40.4184 16.864 40.1374 17.1634C39.8565 17.466 39.6342 17.8148 39.4706 18.2193C39.3069 18.6206 39.2267 19.0528 39.2267 19.5159C39.2267 19.979 39.31 20.4112 39.4706 20.8126C39.6311 21.2139 39.8534 21.5659 40.1374 21.8684C40.4184 22.1679 40.7456 22.4025 41.1223 22.5723C41.4989 22.7421 41.8972 22.8255 42.3232 22.8255C42.7492 22.8255 43.1475 22.7421 43.5241 22.5723C43.8977 22.4025 44.228 22.1679 44.509 21.8684C44.7899 21.5659 45.0122 21.217 45.1758 20.8126C45.3395 20.4143 45.4197 19.979 45.4197 19.5159Z" fill="#FF3366"/>
<path d="M59.4513 24.9526H56.7438V24.1252C56.5678 24.3012 56.364 24.4555 56.1325 24.5883C55.901 24.721 55.6571 24.8322 55.3977 24.9248C55.1415 25.0205 54.876 25.0915 54.6074 25.1409C54.3388 25.1903 54.0826 25.2181 53.8448 25.2181C53.2922 25.2181 52.7643 25.1316 52.2549 24.9557C51.7486 24.7797 51.2979 24.5111 50.9089 24.1468C50.5199 23.7825 50.2081 23.3132 49.9796 22.7359C49.7481 22.1586 49.6307 21.4763 49.6307 20.686V14.0793H52.3383V20.5501C52.3383 20.9391 52.3969 21.2818 52.5173 21.5751C52.6346 21.8715 52.7921 22.1154 52.9866 22.3099C53.1811 22.5044 53.4065 22.6464 53.6627 22.7421C53.9189 22.8347 54.1844 22.881 54.4623 22.881C55.3391 22.881 56.0985 22.5816 56.7376 21.9795V14.0793H59.4451V24.9526H59.4513Z" fill="#FF3366"/>
<path d="M69.5127 15.2092L68.0647 17.503C67.8023 17.2159 67.509 16.9628 67.191 16.7436C66.87 16.5244 66.5489 16.4132 66.2217 16.4132C66.0457 16.4132 65.8543 16.4534 65.6474 16.5367C65.4406 16.6201 65.2461 16.7528 65.0639 16.9411C64.8818 17.1295 64.7274 17.3764 64.6039 17.6852C64.4773 17.9939 64.4156 18.3705 64.4156 18.8244V24.9557H61.7081V14.0793H64.4156V15.2462C64.7398 14.7832 65.101 14.425 65.4961 14.175C65.8913 13.9249 66.3328 13.7983 66.8237 13.7983C67.2991 13.7983 67.7684 13.928 68.2253 14.1842C68.6822 14.4405 69.1113 14.7832 69.5127 15.2092Z" fill="#FF3366"/>
<path d="M83.1429 14.0793L79.0616 24.9711H76.3911L72.2912 14.0793H75.2611L77.7248 21.3775L80.1884 14.0793H83.1429Z" fill="#FF3366"/>
<path d="M72.2171 23.4861C72.2171 24.2919 71.5657 24.9433 70.7599 24.9433C69.9541 24.9433 69.3027 24.2919 69.3027 23.4861C69.3027 22.6804 69.9541 22.0289 70.7599 22.0289C71.5626 22.0289 72.2171 22.6834 72.2171 23.4861Z" fill="#FF3366"/>
<path d="M94.257 24.6932V18.3335C94.257 17.5432 94.1366 16.8609 93.8989 16.2836C93.6612 15.7062 93.3432 15.237 92.948 14.8727C92.5529 14.5084 92.1021 14.2398 91.5958 14.0638C91.0864 13.8878 90.5585 13.8014 90.0059 13.8014C89.7558 13.8014 89.4965 13.8261 89.2248 13.8755C88.9562 13.9249 88.6907 13.999 88.4345 14.0916C88.1782 14.1842 87.9282 14.3015 87.6904 14.4374C87.4527 14.5763 87.252 14.7276 87.0884 14.8881L87.0699 14.0793H84.3624V24.9495H87.0699V17.0338C87.3971 16.7219 87.7614 16.4935 88.1659 16.3453C88.5672 16.2033 88.9778 16.1292 89.3946 16.1292C89.6725 16.1292 89.941 16.1755 90.1973 16.2712C90.4566 16.3638 90.6851 16.5089 90.8857 16.7034C91.0864 16.8979 91.247 17.1418 91.3674 17.4351C91.4878 17.7315 91.5464 18.0711 91.5464 18.4601V24.9495C91.5495 24.9526 92.3615 24.5667 94.257 24.6932Z" fill="#FF3366"/>
<path fill-rule="evenodd" clip-rule="evenodd" d="M96.3315 13.2365C96.4025 13.0204 96.4673 12.7981 96.5507 12.582C97.0508 11.2792 97.622 10.0072 98.3506 8.81554C98.8322 8.02521 99.3261 7.23487 99.8787 6.49084C100.641 5.46587 101.496 4.51191 102.512 3.72157C102.947 3.38506 103.398 3.06707 103.843 2.73982C103.874 2.71513 103.898 2.68425 103.905 2.60707C103.846 2.63177 103.778 2.64721 103.725 2.68117C102.91 3.26157 102.077 3.8111 101.293 4.43164C99.959 5.4844 98.7179 6.64829 97.6251 7.95111C96.9675 8.73219 96.3685 9.56575 95.782 10.4024C95.4887 10.8161 95.2818 11.2915 95.0194 11.7639C93.2535 10.0751 91.1789 9.76951 88.8295 10.4827C90.2033 6.8397 92.5187 4.05808 95.8437 2.14707C101.188 -0.918575 107.918 -0.773473 113.179 3.04855C117.856 6.44453 120.119 12.193 119.662 17.1295C117.791 15.8854 115.831 15.6291 113.737 16.6078C113.818 15.0765 113.577 13.6162 113.253 12.1652C112.926 10.7049 112.49 9.27863 111.91 7.89554C111.342 6.54641 110.709 5.23741 109.937 3.99634C109.909 4.01177 109.878 4.02721 109.851 4.04265C110.017 4.36372 110.19 4.67862 110.348 5.00587C110.996 6.355 111.382 7.7844 111.635 9.25393C111.882 10.6833 112.039 12.122 112.098 13.5699C112.141 14.6474 112.104 15.7217 111.947 16.7899C111.931 16.9011 111.919 17.0122 111.904 17.1542C109.934 14.9839 107.588 13.4896 104.744 12.8012C101.91 12.1158 99.1255 12.2764 96.3871 13.2828C96.3655 13.2674 96.35 13.2519 96.3315 13.2365Z" fill="#FF3366"/>
<path fill-rule="evenodd" clip-rule="evenodd" d="M103.056 21.1584H103.049C103.55 18.9726 104.053 16.7899 104.547 14.6011C104.565 14.5146 104.522 14.3603 104.463 14.3078C104.081 13.9805 103.642 13.8354 103.151 13.8972C103.018 13.9126 102.951 13.9743 102.923 14.1225C102.852 14.4807 102.781 14.8419 102.701 15.1969C102.241 17.2036 101.781 19.2103 101.317 21.2171L101.327 21.2201C100.827 23.4059 100.323 25.5886 99.8294 27.7775C99.8108 27.8639 99.8541 28.0183 99.9127 28.0708C100.296 28.398 100.734 28.5462 101.225 28.4814C101.358 28.4659 101.425 28.4042 101.453 28.2591C101.524 27.901 101.595 27.5398 101.676 27.1816C102.129 25.1718 102.592 23.1651 103.056 21.1584Z" fill="#FF3366"/>
<path fill-rule="evenodd" clip-rule="evenodd" d="M112.688 31.6118C112.688 31.6118 99.6596 21.5258 83.7386 30.8339C83.7386 30.8339 83.3002 31.2136 83.9362 31.2352C83.9362 31.2352 97.5077 24.4031 112.499 31.9978C112.496 31.9978 112.956 32.0533 112.688 31.6118Z" fill="#FF3366"/>
</svg>
